:FULLY-SPECIFIED
:DEGREES
243
root -0.567874014377594 -0.567874014377594 -0.567874014377594 -0.5678755879732001 -0.5678755879732001 -0.5678755879732001
lhipjoint -9.671654586443837e-08 -1.5341245206083327e-07 1.0672170578144923e-06
lfemur 6.7918713818821566 -2.979123823727873 2.4670126749030072
ltibia -3.2900609286167106 2.2461636938119293e-07 7.539293683578417e-07
lfoot -0.42039763648618234 8.502814481002219e-07 1.7246365325282653
ltoes 11.568156501014489 3.125109420256748e-06 -4.179983686796666e-07
rhipjoint 1.1005675908711953e-07 6.870210827458292e-07 -1.494104084495789e-06
rfemur 6.018504430087245 5.322261839966002 -1.4794056340115391
rtibia -4.463256268810179 -1.0441796641457158e-07 -3.919202884020986e-08
rfoot 4.805528574063742 2.3182146055661814e-06 -3.6155055687460664
rtoes -0.005628075042327181 -4.0297115943623707e-10 -4.626956649409259e-10
lowerback -5.227592429861864 0.9548603392460768 -1.0203894943082965
upperback -2.7754465154610353 1.290359231277103 0.4296736470288679
thorax 0.5103243606658198 0.5334104534213158 0.11764319160451285
lowerneck -11.457395592112624 -2.029057957114028 -1.9248847656666397
upperneck 23.5797988923852 -3.0151462414105206 2.3060364286666197
head 9.370881229926802 -1.331763944747426 0.7745436119620046
lclavicle -1.4085775951116125e-07 5.4855408257763046e-08 -1.0938974842598547e-06
lhumerus -125.13136053819473 16.708534672251282 -41.00671066342362
lradius 46.29714296808371 3.171781439430168e-07 1.7081465598940503e-06
lwrist 1.4875681209586938e-05 84.46241980470116 -3.58693165955924e-06
lhand -4.562975323145072 2.6246558075710764e-07 -26.656099019086014
lfingers 7.125022823272814 9.845282338726802e-08 3.18924141240953e-07
lthumb 21.213298854421275 -1.2803152392500461e-07 2.20318914769186
rclavicle 1.398304276268298e-07 4.3880174074018323e-07 -1.3740421654916584e-06
rhumerus -119.06541489479304 -36.042368665212855 18.001887340653848
rradius 21.325349815302626 -1.2541514366627031e-06 -2.325608148423149e-06
rwrist 5.8639140631236776e-06 -99.50354137601225 1.3108240561099422e-05
rhand -6.972260092956778 2.0321462048512455e-07 -36.68780446630613
rfingers 7.125022396385991 5.1024341088409163e-08 -3.1892353057445414e-07
rthumb 18.897492480477187 1.5447771905696147e-06 -65.78980959509936
244
root -0.567874014377594 -0.567874014377594 -0.567874014377594 -0.5678755879732001 -0.5678755879732001 -0.5678755879732001
lhipjoint -9.671654586443837e-08 -1.5341245206083327e-07 1.0672170578144923e-06
lfemur 6.93526522709105 -3.0312381670950703 2.539261562169756
ltibia -3.43305947662739 3.169658355569197e-07 7.46850522303277e-07
lfoot -0.3767286085842943 -1.396814122788939e-07 1.7111949336850918
ltoes 11.711686096233137 -3.140621163549308e-07 -5.644946155301264e-07
rhipjoint 1.1005675908711953e-07 6.870210827458292e-07 -1.494104084495789e-06
rfemur 6.145026854272562 5.266432300577141 -1.5010573336804796
rtibia -4.552553735132102 -2.8377387223441586e-07 -2.598215576615258e-06
rfoot 4.86917355741039 1.0504293268726042e-06 -3.5335714732362398
rtoes 0.0602695825660859 4.314948807205043e-09 5.3492222521287784e-09
lowerback -5.360768312072419 0.9458717035766342 -1.0093382482312159
upperback -2.7912242524437647 1.2851682875078934 0.44228212287585855
thorax 0.5641734653604945 0.5306373966182906 0.12734206022593095
lowerneck -11.457395592112624 -2.029057957114028 -1.9248847656666397
upperneck 23.5797988923852 -3.0151462414105206 2.3060364286666197
head 9.370881229926802 -1.331763944747426 0.7745436119620046
lclavicle -1.4085775951116125e-07 5.4855408257763046e-08 -1.0938974842598547e-06
lhumerus -125.55750970089015 16.280800905668404 -40.691896999293974
lradius 46.09330280249385 8.083376160718284e-07 2.8958224699369196e-06
lwrist 1.5056904228226987e-05 84.52339973361103 -3.63061589110933e-06
lhand -4.562975323145072 2.6246558075710764e-07 -26.656099019086014
lfingers 7.125022823272814 9.845282338726802e-08 3.18924141240953e-07
lthumb 21.213298854421275 -1.2803152392500461e-07 2.20318914769186
rclavicle 1.398304276268298e-07 4.3880174074018323e-07 -1.3740421654916584e-06
rhumerus -119.10284433144471 -35.412560336940565 18.28691113471848
rradius 21.03254131313147 -1.3178748929277604e-06 -1.8250957081980886e-06
rwrist 5.92072721728785e-06 -99.39294012278224 1.323524860797237e-05
rhand -6.972260092956778 2.0321462048512455e-07 -36.68780446630613
rfingers 7.125022396385991 5.1024341088409163e-08 -3.1892353057445414e-07
rthumb 18.897492480477187 1.5447771905696147e-06 -65.78980959509936
245
root -0.567874014377594 -0.567874014377594 -0.567874014377594 -0.5678755879732001 -0.5678755879732001 -0.5678755879732001
lhipjoint -9.671654586443837e-08 -1.5341245206083327e-07 1.0672170578144923e-06
lfemur 7.083180230643669 -3.0831480316739905 2.614322566383846
ltibia -3.5739235905224405 1.9535801431097337e-07 -9.629203086999407e-07
lfoot -0.33268584126875955 -5.696443661148525e-07 1.6942969389567746
ltoes 11.869313201898692 1.4130155121141896e-06 -6.158303965329445e-07
rhipjoint 1.1005675908711953e-07 6.870210827458292e-07 -1.494104084495789e-06
rfemur 6.269650485868614 5.210697530063014 -1.5243101791012592
rtibia -4.625800256904496 -1.6404748902696118e-07 -1.748546016346875e-06
rfoot 4.928651271589684 2.1296147356201316e-06 -3.4445869149556674
rtoes 0.12338051048668389 8.625994056038432e-07 1.2981723362869357e-08
lowerback -5.508230815592524 0.9383313881763518 -0.9998851596982125
upperback -2.81186465722872 1.280756092025771 0.45310124924286455
thorax 0.6205635071481198 0.5284381824272523 0.13585247593176683
lowerneck -11.457395592112624 -2.029057957114028 -1.9248847656666397
upperneck 23.5797988923852 -3.0151462414105206 2.3060364286666197
head 9.370881229926802 -1.331763944747426 0.7745436119620046
lclavicle -1.4085775951116125e-07 5.4855408257763046e-08 -1.0938974842598547e-06
lhumerus -125.92412693477976 15.891869443760367 -40.423791583803464
lradius 45.87621548500876 1.1720917009924473e-06 2.008870498581296e-06
lwrist 1.5315730745539754e-05 84.60819653215674 -3.6930398490648536e-06
lhand -4.562975323145072 2.6246558075710764e-07 -26.656099019086014
lfingers 7.125022823272814 9.845282338726802e-08 3.18924141240953e-07
lthumb 21.213298854421275 -1.2803152392500461e-07 2.20318914769186
rclavicle 1.398304276268298e-07 4.3880174074018323e-07 -1.3740421654916584e-06
rhumerus -119.11789806837541 -34.8152944449688 18.56774460772731
rradius 20.73545882008718 -3.6872531733218366e-07 -2.0210948205550953e-06
rwrist 5.968406429073358e-06 -99.30217373890193 1.3341807469354128e-05
rhand -6.972260092956778 2.0321462048512455e-07 -36.68780446630613
rfingers 7.125022396385991 5.1024341088409163e-08 -3.1892353057445414e-07
rthumb 18.897492480477187 1.5447771905696147e-06 -65.78980959509936
246
root -0.567874014377594 -0.567874014377594 -0.567874014377594 -0.5678755879732001 -0.5678755879732001 -0.5678755879732001
lhipjoint -9.671654586443837e-08 -1.5341245206083327e-07 1.0672170578144923e-06
lfemur 7.235504548192355 -3.1364642748916984 2.6929807324130053
ltibia -3.7167562930023355 2.5983096192560797e-07 -1.1473992230007494e-07
lfoot -0.28729349794233905 7.336921859195005e-07 1.675978051437683
ltoes 12.041636313337174 1.410484706587493e-06 -6.300784672839026e-07
rhipjoint 1.1005675908711953e-07 6.870210827458292e-07 -1.494104084495789e-06
rfemur 6.3939475490449755 5.15507246946243 -1.5497845435495852
rtibia -4.691179254526681 -2.0112280783778216e-07 -8.924401329584574e-07
rfoot 4.987472433835011 1.1809291647859243e-06 -3.350576618106435
rtoes 0.18645049062279484 8.671034781437947e-07 1.849233332064496e-08
lowerback -5.669328511130091 0.9318699224998139 -0.9923448442979299
upperback -2.8354157898171586 1.2766032302886974 0.4622399356306358
thorax 0.6810789298335799 0.5265528901337702 0.14357061637430768
lowerneck -11.457395592112624 -2.029057957114028 -1.9248847656666397
upperneck 23.5797988923852 -3.0151462414105206 2.3060364286666197
head 9.370881229926802 -1.331763944747426 0.7745436119620046
lclavicle -1.4085775951116125e-07 5.4855408257763046e-08 -1.0938974842598547e-06
lhumerus -126.24080182545823 15.529577427162675 -40.197521076979285
lradius 45.646543543977906 -8.943361506596089e-07 2.1088952284254556e-06
lwrist 1.563648698805498e-05 84.70969314322313 -3.7703929744730426e-06
lhand -4.562975323145072 2.6246558075710764e-07 -26.656099019086014
lfingers 7.125022823272814 9.845282338726802e-08 3.18924141240953e-07
lthumb 21.213298854421275 -1.2803152392500461e-07 2.20318914769186
rclavicle 1.398304276268298e-07 4.3880174074018323e-07 -1.3740421654916584e-06
rhumerus -119.11030289801836 -34.237887328008846 18.849993637441624
rradius 20.43136172276529 -3.5181148375828497e-07 -1.9469981760297257e-06
rwrist 6.009139512990049e-06 -99.22601029946712 1.3432883085213273e-05
rhand -6.972260092956778 2.0321462048512455e-07 -36.68780446630613
rfingers 7.125022396385991 5.1024341088409163e-08 -3.1892353057445414e-07
rthumb 18.897492480477187 1.5447771905696147e-06 -65.78980959509936
